<svg width="1416" height="329" viewBox="0 0 1416 329" fill="none" xmlns="http://www.w3.org/2000/svg">
<g clip-path="url(#clip0_322_2879)">
<path d="M1416 4.80762V71.6324H1327.54V324.99H1257.35V71.6324H1168.41V4.80762H1416Z" fill="#C6C0AA"/>
<path d="M897.164 4.80762H967.835V199.994C967.835 238.935 990.911 261.53 1030.81 261.53C1067.35 261.53 1088.98 238.935 1088.98 199.994V4.80762H1159.17V199.994C1159.17 277.395 1107.73 328.836 1030.81 328.836C950.528 328.836 897.164 277.395 897.164 199.994V4.80762Z" fill="#C6C0AA"/>
<path d="M580.809 168.745C580.809 67.3055 641.384 0 732.246 0C823.108 0 883.683 67.3055 883.683 168.745C883.683 264.895 823.108 328.835 732.246 328.835C641.384 328.835 580.809 264.895 580.809 168.745ZM811.57 168.745C811.57 102.401 782.244 63.9402 732.246 63.9402C681.767 63.9402 652.922 102.401 652.922 168.745C652.922 229.319 681.767 264.895 732.246 264.895C782.244 264.895 811.57 229.319 811.57 168.745Z" fill="#C6C0AA"/>
<path d="M466.866 4.80762C523.595 4.80762 562.056 37.9796 562.056 86.055C562.056 117.304 545.229 144.226 518.307 156.726C554.363 170.187 576.959 201.917 576.959 240.858C576.959 290.856 540.422 324.99 486.577 324.99H310.141V4.80762H466.866ZM458.213 64.9018H381.292V132.688H458.213C476.962 132.688 489.942 118.746 489.942 97.5931C489.942 77.8822 476.962 64.9018 458.213 64.9018ZM465.905 192.782H381.292V265.376H468.309C489.942 265.376 504.846 250.953 504.846 229.8C504.846 207.205 489.462 192.782 465.905 192.782Z" fill="#C6C0AA"/>
<path d="M301.913 324.99H227.877L207.686 260.569H94.2277L74.5168 324.99H0L111.054 4.80762H191.34L301.913 324.99ZM150.476 80.2859L112.016 204.32H189.898L150.476 80.2859Z" fill="#C6C0AA"/>
</g>
<defs>
<clipPath id="clip0_322_2879">
<rect width="1416" height="328.836" fill="white"/>
</clipPath>
</defs>
</svg>
