<svg width="486" height="194" viewBox="0 0 486 194" fill="none" xmlns="http://www.w3.org/2000/svg">
<g clip-path="url(#clip0_322_2713)">
<g clip-path="url(#clip1_322_2713)">
<path d="M334.825 48.674C326.382 48.674 319.833 42.242 319.833 33.684C319.833 24.967 326.382 18.588 334.825 18.588C343.377 18.588 349.98 24.967 349.98 33.685C349.98 42.242 343.377 48.674 334.825 48.674ZM322.431 33.684C322.431 40.966 327.627 46.388 334.825 46.388C342.078 46.388 347.328 40.966 347.328 33.684C347.328 26.296 342.078 20.821 334.825 20.821C327.627 20.821 322.431 26.296 322.431 33.684ZM328.709 41.923V25.073H335.745C338.992 25.073 341.807 26.508 341.807 30.07C341.807 32.036 340.887 33.418 339.371 34.216C340.887 34.854 341.428 36.129 341.428 37.565C341.428 39.904 341.699 40.7 342.511 41.498V41.923H338.776C338.073 40.913 337.964 39.956 337.91 37.724C337.856 36.129 337.261 35.544 334.609 35.544H332.281V41.923H328.709ZM332.281 32.568H335.042C337.044 32.568 338.235 32.196 338.235 30.282C338.235 28.528 336.99 28.103 335.258 28.103H332.281V32.568ZM188.172 19.148C188.349 20.03 188.406 21.311 188.408 22.655C188.41 23.944 188.359 25.31 188.323 26.252L188.319 26.356C188.302 26.814 188.299 27.237 188.295 27.726C188.286 28.908 188.274 30.531 188.061 33.86C188.073 34.845 188.08 35.79 188.084 36.781C188.12 47.273 187.869 57.79 187.573 68.287L187.581 68.691C187.631 71.325 187.694 74.59 187.578 76.643C187.43 79.251 187.29 81.027 187.169 82.482C186.943 90.824 186.754 99.173 186.746 107.502C186.739 112.517 186.813 117.533 186.968 122.546C187.076 123.939 187.2 125.267 187.319 126.493C187.487 128.216 187.646 129.745 187.733 131.003C187.953 133.93 187.966 137.76 188.404 139.287C188.467 139.512 188.545 139.732 188.638 139.946C188.69 140.033 188.735 140.018 188.542 139.85C188.371 139.672 187.764 139.485 187.509 139.531C188.104 139.454 188.902 139.017 189.72 138.255C189.817 138.21 189.918 138.161 190.022 138.107C191.323 137.433 192.63 135.869 194.321 133.104C195.063 131.893 195.884 130.441 196.841 128.702C197.457 127.579 197.895 127.061 198.256 126.634C198.362 126.51 198.46 126.393 198.554 126.271C198.877 125.851 199.031 125.317 199.214 124.681C199.451 123.86 199.734 122.87 200.487 121.748C201.252 120.609 201.83 119.643 202.276 118.812L202.247 118.872C203.127 117.092 203.403 115.912 203.624 114.958C203.719 114.548 203.806 114.172 203.926 113.805C204.314 112.613 205.155 111.041 205.86 109.88C206.421 108.96 207.137 106.942 207.599 105.382C207.775 104.79 208.095 104.029 208.469 103.129C208.857 102.198 209.302 101.12 209.702 99.937C210.711 96.947 211.228 95.359 211.644 94.081C211.763 93.714 211.871 93.379 211.98 93.038C212.292 92.056 212.69 90.861 213.083 89.639L213.189 89.31C213.7 87.715 214.192 86.085 214.512 84.839C215.653 81.704 216.685 78.53 217.607 75.323C218.082 73.672 218.782 72.128 219.595 71.046C220.408 69.964 221.263 69.439 221.992 69.603C222.72 69.767 223.271 70.603 223.534 71.939C223.796 73.276 223.74 75.012 223.364 76.759C222.27 81.869 220.866 86.908 219.158 91.848C218.259 94.455 217.295 97.039 216.269 99.598C215.021 102.707 213.719 105.795 212.364 108.858C211.53 111.275 210.661 113.672 209.983 115.338C209.425 116.712 208.889 117.658 208.428 118.467C208.113 119.019 207.831 119.511 207.596 120.039C207.475 120.309 207.309 120.695 207.115 121.14C207.105 121.16 207.077 121.221 207.066 121.241L207.054 121.266C206.185 123.087 204.741 126.234 203.117 129.013C202.396 130.246 201.485 131.649 200.573 132.983C199.278 134.889 197.95 136.633 197.367 137.589C196.35 139.273 194.868 141.083 193.066 142.487C191.451 143.796 189.354 144.578 187.983 144.756C187.888 144.769 187.793 144.778 187.697 144.785C187.002 144.845 186.152 144.622 185.579 144.255C184.994 143.893 184.634 143.481 184.365 143.112C183.842 142.368 183.614 141.716 183.405 141.014C183.365 140.878 183.328 140.74 183.293 140.602C182.987 139.365 182.919 138.117 182.805 136.501C182.685 134.638 182.734 133.374 182.769 132.278C182.822 130.739 182.874 129.595 182.647 127.893C182.395 125.998 182.225 124.026 182.251 122.47C182.262 121.743 182.239 120.962 182.215 120.096C182.184 118.995 182.153 117.805 182.204 116.737C182.246 115.818 182.38 115.138 182.499 114.468C182.535 114.263 182.57 114.058 182.601 113.879C182.589 113.175 182.577 112.471 182.563 111.766L182.483 111.415C182.34 110.807 182.166 110 182.073 109.066C181.925 107.557 181.991 106.244 182.062 104.823C182.118 103.754 182.176 102.586 182.138 101.308C182.113 100.431 182.044 99.4 181.976 98.417C181.876 96.926 181.778 95.472 181.824 94.445C181.841 94.06 181.929 93.73 182.017 93.408L182.019 93.404L182.037 93.338C181.947 90.859 181.853 88.379 181.755 85.899C181.73 85.684 181.706 85.466 181.682 85.249C181.563 84.201 181.449 83.182 181.292 82.514C181.12 81.79 181.013 79.977 180.9 78.065C180.825 76.814 180.749 75.515 180.651 74.461C180.594 73.843 180.684 73.254 180.778 72.65C180.865 72.087 180.954 71.509 180.928 70.877C180.909 70.535 180.876 70.194 180.831 69.855C180.793 69.533 180.752 69.194 180.726 68.839C180.703 68.509 180.75 67.773 180.81 66.83C180.847 66.246 180.89 65.583 180.924 64.888C180.856 63.053 180.791 61.215 180.731 59.375C180.647 58.992 180.539 58.66 180.401 58.397C180.301 58.218 180.188 58.047 180.062 57.885C179.898 57.661 179.728 57.433 179.592 57.11C179.485 56.859 179.442 56.563 179.485 56.364C179.505 56.271 179.543 56.2 179.578 56.135C179.617 56.061 179.652 55.995 179.651 55.915C179.65 55.857 179.621 55.797 179.587 55.723C179.532 55.604 179.461 55.451 179.458 55.216C179.445 54.35 179.463 53.348 179.481 52.379C179.501 51.305 179.521 50.237 179.497 49.399C179.469 48.467 179.569 47.104 179.668 45.769C179.738 44.834 179.806 43.88 179.833 43.081C179.859 42.305 179.798 41.458 179.739 40.669C179.668 39.727 179.599 38.786 179.688 38.009C179.706 37.852 179.819 37.656 179.96 37.412C180.06 37.237 180.174 37.043 180.28 36.808C180.276 35.793 180.278 34.829 180.283 33.817L180.235 33.709L180.234 33.707C179.87 32.883 179.373 31.78 179.662 30.199C179.736 29.801 179.874 29.558 179.998 29.331C180.119 29.103 180.228 28.901 180.25 28.607C180.275 28.273 180.198 27.884 180.115 27.465C179.999 26.891 179.869 26.182 179.986 25.526L180.011 25.381C180.095 24.915 180.218 24.165 180.468 23.457L180.492 22.679C180.547 20.795 180.611 18.954 180.681 17.105C180.814 13.543 180.967 10.028 181.119 6.48598C181.195 4.78598 181.533 3.10598 182.08 1.90598C182.628 0.675977 183.335 0.00297656 184.068 0.000976562C184.8 0.00297656 185.509 0.667977 186.064 1.89398C186.618 3.09098 186.967 4.76898 187.052 6.46798C187.191 9.27698 187.33 12.079 187.458 14.881C187.474 15.03 187.489 15.18 187.503 15.333C187.609 16.403 187.819 17.427 188.028 18.448C188.076 18.689 188.124 18.92 188.172 19.148Z" fill="#C6C0AA"/>
<path d="M216.011 56.1897C215.369 57.0537 213.617 58.0807 212.674 58.6307L212.621 58.6627C212.385 58.8027 212.19 58.9307 211.95 59.0877C211.375 59.4667 210.596 59.9797 208.865 60.8957C208.402 61.2227 207.936 61.5467 207.469 61.8677C202.431 65.3207 197.218 68.5407 191.971 71.7167L191.781 71.8527C190.547 72.7437 188.998 73.8607 187.939 74.4317C186.933 74.9767 185.914 75.4957 184.883 75.9907C180.723 78.5047 176.574 81.0477 172.512 83.7117C171.238 84.5467 169.974 85.3947 168.719 86.2557C167.564 87.0497 166.415 87.8527 165.272 88.6637C164.678 89.1617 164.09 89.6677 163.508 90.1797C162.747 90.8467 162.057 91.4487 161.465 91.8967C160.038 92.9787 158.293 94.0197 156.989 94.8007C156.776 94.9267 156.576 95.0467 156.393 95.1577C155.439 95.8707 154.467 96.6027 153.519 97.3187C153.436 97.3407 153.352 97.3617 153.266 97.3827C152.194 97.6487 151.171 98.3597 149.541 99.4907C148.712 100.071 147.875 100.639 147.031 101.195C146.402 101.606 145.982 101.709 145.65 101.785C145.552 101.807 145.46 101.829 145.371 101.856C145.066 101.95 144.863 102.216 144.625 102.528C144.309 102.939 143.921 103.437 143.187 103.735C140.827 104.698 140.143 105.622 139.62 106.326C139.469 106.531 139.332 106.715 139.174 106.875C138.701 107.348 137.89 107.794 137.208 108.08C137.125 108.117 137.044 108.15 136.965 108.182C136.351 108.431 135.436 109.239 134.746 109.939C134.489 110.202 134.113 110.464 133.629 110.802C133.138 111.145 132.602 111.519 132.03 112.01C130.639 113.215 129.878 113.862 129.281 114.37L128.791 114.788C128.283 115.222 127.637 115.738 127.004 116.248C126.213 116.88 125.447 117.499 124.866 118.016C123.207 119.073 121.509 120.134 119.875 121.187C119.035 121.727 118.083 122.023 117.226 122.006C116.368 121.986 115.591 121.717 115.103 121.151C114.619 120.587 114.438 119.779 114.696 118.863C114.945 117.955 115.566 117.071 116.366 116.411C117.972 115.093 119.597 113.797 121.239 112.524C123.221 110.988 125.244 109.479 127.301 108.048C128.743 107.045 130.194 106.058 131.656 105.085L132.114 104.78C132.708 104.249 133.282 103.738 133.854 103.253C134.278 102.884 134.712 102.525 135.154 102.178C135.846 101.64 136.389 101.383 136.886 101.142C137.223 100.979 137.531 100.828 137.789 100.641C137.929 100.538 138.12 100.393 138.351 100.217C139.307 99.4887 140.924 98.2587 142.529 97.3707C143.252 96.9677 144.119 96.5607 144.951 96.1697C146.155 95.5987 147.243 95.0917 147.72 94.6897C148.552 93.9847 149.597 93.3767 150.551 92.8177C151.44 92.2997 152.227 91.8387 152.584 91.4427C153.011 90.9687 153.47 90.7267 154.166 90.3567C154.792 90.0307 155.404 89.6777 156 89.2987C156.876 88.7397 157.552 88.4007 158.115 88.1217C158.91 87.7257 159.511 87.4257 160.232 86.7217C161.025 85.9447 161.906 85.1917 162.686 84.7287C163.04 84.5187 163.425 84.2457 163.825 83.9617C164.355 83.5867 164.915 83.1907 165.467 82.8947C165.922 82.6507 166.354 82.5297 166.737 82.4217C166.856 82.3887 166.971 82.3557 167.08 82.3217C167.416 82.0887 167.752 81.8547 168.087 81.6197C168.128 81.5627 168.171 81.5017 168.216 81.4387C168.441 81.1217 168.717 80.7327 169.129 80.3517C169.78 79.7477 170.463 79.3767 171.182 78.9867C171.743 78.6837 172.324 78.3687 172.934 77.9197C173.35 77.6127 173.801 77.2327 174.246 76.8557C174.907 76.2957 175.566 75.7397 176.084 75.4497C176.279 75.3417 176.487 75.3087 176.694 75.2767H176.697L176.739 75.2697C177.89 74.3947 179.038 73.5157 180.183 72.6317L180.454 72.3607C180.897 71.9227 181.322 71.5007 181.556 71.1547C181.81 70.7797 182.632 70.0987 183.485 69.3897C184.051 68.9207 184.638 68.4357 185.09 68.0137C185.357 67.7657 185.683 67.6547 186.033 67.5327C186.357 67.4197 186.688 67.3047 186.979 67.0777C187.124 66.9637 187.266 66.8197 187.417 66.6657C187.549 66.5307 187.689 66.3877 187.845 66.2527C187.986 66.1287 188.376 65.9237 188.867 65.6657C189.17 65.5057 189.514 65.3257 189.866 65.1287C190.713 64.4767 191.562 63.8277 192.412 63.1807C192.553 62.9847 192.654 62.7857 192.703 62.5857C192.74 62.4427 192.751 62.2927 192.763 62.1387C192.778 61.9307 192.795 61.7137 192.872 61.4977C192.932 61.3297 193.05 61.1977 193.169 61.1687C193.223 61.1597 193.277 61.1597 193.33 61.1717C193.388 61.1797 193.44 61.1877 193.477 61.1607C193.504 61.1417 193.517 61.0987 193.533 61.0467C193.559 60.9627 193.592 60.8547 193.701 60.7767C194.119 60.4787 194.614 60.1667 195.09 59.8667C195.615 59.5377 196.142 59.2047 196.537 58.9087C196.983 58.5737 197.661 58.2367 198.385 57.8657C198.881 57.6147 199.368 57.3687 199.765 57.1327C200.171 56.8897 200.536 56.5687 200.884 56.2627C201.293 55.8997 201.708 55.5357 202.138 55.3517C202.225 55.3157 202.383 55.3437 202.582 55.3797C202.736 55.4107 202.893 55.4337 203.05 55.4477L203.42 55.1957C203.784 54.9477 204.142 54.7077 204.494 54.4747L204.518 54.4007L204.519 54.3997C204.687 53.8467 204.979 53.0487 205.882 52.7867C206.11 52.7217 206.311 52.7507 206.494 52.7767C206.673 52.8017 206.831 52.8257 206.985 52.7477C207.16 52.6597 207.304 52.4697 207.459 52.2657C207.665 51.9857 207.936 51.6457 208.321 51.5247L208.406 51.4987C208.689 51.4077 209.087 51.2857 209.588 51.2487C210.644 50.6077 211.705 49.9747 212.771 49.3497C214.565 48.2947 216.34 47.2777 218.135 46.2487C219.016 45.7437 219.999 45.4877 220.896 45.5427C221.783 45.6037 222.561 45.9357 222.904 46.5897C223.335 47.1787 223.413 47.9747 223.14 48.8277C222.869 49.6767 222.277 50.4967 221.488 51.1337C220.222 52.1567 218.949 53.1847 217.665 54.2087L217.472 54.3947C217.027 54.8237 216.631 55.3437 216.273 55.8387C216.187 55.9547 216.1 56.0727 216.011 56.1897ZM220.062 116.984C220.791 114.948 221.814 112.293 222.96 109.396C225.232 103.649 227.962 97.0297 229.724 92.7437L229.869 92.3907C230.506 90.8347 231.135 89.2767 231.758 87.7147C233.375 83.6657 235.571 78.1927 240.261 66.8207C241.556 63.4857 242.848 60.1507 244.138 56.8137C244.613 55.5837 245.103 54.3107 245.572 53.0877C246.536 50.5757 247.475 48.0957 248.443 45.5727C248.677 44.9647 248.936 44.2947 249.183 43.6707C249.32 43.3267 249.448 43.0077 249.592 42.6627L249.712 42.3807C249.757 42.2777 249.788 42.2077 249.845 42.0807C249.906 41.9477 249.961 41.8307 250.048 41.6637C250.118 41.5317 250.191 41.3907 250.352 41.1497C250.392 41.0877 250.44 41.0197 250.501 40.9397C250.649 40.7857 250.812 40.3997 251.813 39.7957C252.66 39.3197 253.647 39.1567 254.602 39.3337C255.918 39.5227 257.007 40.6387 257.17 40.9177C257.815 41.8147 257.869 42.3517 257.951 42.7087C258.012 43.0677 258.014 43.2797 258.016 43.4507C258.018 43.6157 258.007 43.7587 258.006 43.7787C257.991 43.9797 257.966 44.1797 257.932 44.3787C257.892 44.6117 257.845 44.8437 257.791 45.0737C257.688 45.5187 257.579 45.9627 257.465 46.4057C257.294 47.0707 257.118 47.7347 256.939 48.3967C255.517 53.6357 254.085 58.7157 252.639 63.9167C245.501 89.5697 238.312 115.21 231.072 140.835L230.687 142.271C228.225 151.428 225.177 162.749 223.061 170.009L222.912 170.52C220.257 179.666 218.169 186.207 217.109 190.834C217.088 190.917 217.084 191.162 217.082 190.867C217.074 190.763 217.074 190.596 216.967 190.241C216.848 189.901 216.577 189.077 215.459 188.497C214.955 188.223 214.172 188.161 213.904 188.203C213.612 188.227 213.325 188.295 213.054 188.404C212.222 188.78 212.146 189.026 212.092 189.05C212.056 189.089 212.022 189.13 211.99 189.172C211.964 189.214 212.055 189.082 212.128 188.958C212.195 188.848 212.295 188.67 212.378 188.52C212.744 187.84 213.095 187.152 213.431 186.457C214.139 185.002 214.832 183.54 215.512 182.071C216.88 179.129 218.256 176.119 219.617 173.145C229.662 151.184 239.721 129.16 249.874 107.212C253.922 98.4627 257.984 89.7247 262.096 81.0027C263.971 77.0217 265.861 73.0487 267.767 69.0827C269.712 65.0367 271.685 61.0037 273.685 56.9837C275.926 52.3397 278.105 47.9067 280.187 43.8137C283.091 38.0977 285.833 33.0127 288.268 28.9237C289.953 26.0917 291.808 23.1667 293.82 20.3447C294.58 19.3017 295.196 18.3627 296.348 17.1297C296.516 16.9607 296.679 16.7967 296.974 16.5637C297.096 16.4677 297.314 16.3077 297.574 16.1687C297.906 16.0197 298.24 15.7597 299.296 15.7627C299.754 15.7707 300.442 15.9607 300.925 16.3097C301.306 16.5717 301.623 16.9157 301.854 17.3167C302.165 17.8667 302.226 18.2567 302.271 18.4727C302.306 18.6737 302.328 18.8757 302.335 19.0787C302.342 19.2427 302.341 19.3917 302.338 19.5087C302.295 20.4797 302.166 21.0907 302.048 21.7467C301.545 24.2837 300.939 26.5257 300.354 28.7707C299.544 31.8217 298.716 34.8667 297.872 37.9077C297.456 39.4117 297.06 40.8397 296.697 42.1487C294.786 49.4917 292.866 56.8277 290.999 64.1607C290.843 64.6437 290.684 65.1317 290.524 65.6197C289.717 68.0967 288.914 70.8257 288.069 73.9787C286.818 78.6817 285.433 84.3357 283.974 91.6097C283.342 94.7207 282.867 97.7067 282.158 101.822C282.151 101.85 282.146 101.874 282.155 101.835C282.158 101.823 282.161 101.807 282.167 101.771C282.17 101.756 282.169 101.765 282.176 101.724C282.18 101.696 282.186 101.661 282.193 101.597C282.199 101.527 282.214 101.453 282.203 101.212C282.191 101.084 282.195 100.92 282.07 100.548C281.971 100.268 281.821 100.01 281.627 99.7867C281.367 99.4737 280.851 99.1037 280.254 99.0017C278.985 98.8277 278.45 99.4047 278.221 99.5777C277.979 99.8017 277.904 99.9267 277.837 100.021C277.719 100.203 277.693 100.27 277.664 100.328C277.638 100.382 277.625 100.414 277.614 100.439C277.552 100.601 277.574 100.548 277.57 100.559L277.606 100.446C277.627 100.382 277.67 100.249 277.693 100.184L277.784 99.9097L277.873 99.6527C277.998 99.2927 278.126 98.9427 278.26 98.5867C278.524 97.8847 278.818 97.1577 279.12 96.4507C279.753 94.9767 280.446 93.5307 281.2 92.1147C283.58 87.7117 285.293 85.7477 286.653 84.1517C287.061 83.6847 287.447 83.2597 287.845 82.8227C289.202 81.3437 290.552 79.7167 292.332 77.9297C293.625 76.6367 295.149 75.2587 297.089 73.9027C297.262 73.7837 297.444 73.6717 297.644 73.5707C297.893 73.4417 298.156 73.3407 298.428 73.2697C298.785 73.1867 299.125 73.1187 299.724 73.2077C300.277 73.2947 300.835 73.5827 301.206 73.9277C301.397 74.0997 301.552 74.2847 301.679 74.4677C301.782 74.6167 301.866 74.7637 301.937 74.9077C302.079 75.1967 302.168 75.4797 302.218 75.6737C302.274 75.8857 302.314 76.0957 302.343 76.2987C302.367 76.4697 302.384 76.6397 302.396 76.8127C302.469 78.1417 302.314 79.2187 302.127 80.3727C301.3 84.8827 300.277 88.3887 299.526 91.4677C299.142 92.9977 298.8 94.3977 298.524 95.6717C298.393 96.2647 298.278 96.8607 298.178 97.4597C298.132 97.7527 298.099 97.9987 298.084 98.2087C298.078 98.2697 298.076 98.3317 298.079 98.3937C298.079 98.3947 298.09 98.3577 298.049 98.1767C298.025 98.0827 297.994 97.9907 297.954 97.9017C297.919 97.8247 297.879 97.7497 297.834 97.6787C297.658 97.3357 296.978 96.7897 296.302 96.7867L296.165 96.7847C299.62 96.5277 302.443 96.2127 304.726 95.9617C306.247 95.7937 307.674 95.6407 309.073 95.5207C313.713 95.1297 320.288 94.9057 325.273 94.8187C326.562 94.7957 328.21 94.7237 330.164 94.6137C334.114 94.3937 339.013 93.9177 343.019 93.4447C345.243 93.1837 348.299 92.9037 351.888 92.5487C355.63 92.1797 359.881 91.7387 364.482 91.1687C376.094 89.7217 382.244 88.9317 387.21 88.3127L391.262 87.8067C395.439 87.2837 400.574 86.6737 405.826 86.0667C412.102 85.3397 418.448 84.6317 423.291 84.0717C435.889 82.9367 448.459 81.9507 461.094 81.1447C467.562 80.7307 473.806 80.6657 478.42 80.9467C483.024 81.2287 485.643 81.8167 485.683 82.5597C485.721 83.3047 483.181 84.1527 478.658 84.9707C474.125 85.7887 467.957 86.5197 461.526 87.0497C448.53 88.1157 435.598 89.3737 422.629 90.7427C406.863 92.4027 391.073 94.2407 375.272 95.9807C364.223 97.1887 353.148 98.3887 342 99.2997C340.861 99.3917 339.709 99.4807 338.554 99.5657C335.862 99.8277 333.166 100.058 330.468 100.255C323.979 100.723 317.982 101.144 313.337 101.442C307.904 101.789 303.986 101.91 300.591 102.02C299.063 102.066 297.885 102.119 296.253 102.17C296.209 102.17 296.074 102.168 296.029 102.166C295.249 102.144 294.356 101.74 293.849 101.245C293.337 100.78 293.06 100.18 292.996 100.017C292.869 99.7117 292.783 99.3927 292.74 99.0657C292.704 98.7867 292.69 98.5057 292.7 98.2247C292.705 98.0557 292.717 97.8877 292.734 97.7207C292.747 97.5837 292.763 97.4497 292.781 97.3147C292.845 96.8397 292.925 96.4037 293 96.0047C293.229 94.7897 293.571 93.2737 293.988 91.4677C294.511 89.1977 295.163 86.4917 295.771 83.5267C296.07 82.0497 296.362 80.5007 296.532 79.0197C296.615 78.3137 296.655 77.5157 296.616 77.1757C296.611 77.1057 296.595 77.0687 296.625 77.1777C296.688 77.2937 296.659 77.5997 297.396 78.2787C297.742 78.5777 298.306 78.8457 298.811 78.9127C299.361 78.9837 299.614 78.9187 299.854 78.8647C300.09 78.8017 300.177 78.7537 300.238 78.7247C300.298 78.6947 300.321 78.6777 300.318 78.6807C296.927 80.9447 293.771 83.9367 291.137 87.1977C288.093 90.9267 285.087 95.8787 283.107 100.883L282.969 101.237C282.879 101.474 282.791 101.711 282.705 101.949L282.639 102.133L282.619 102.191C282.616 102.202 282.612 102.212 282.608 102.222L282.602 102.24C282.601 102.243 282.599 102.251 282.569 102.334C282.546 102.388 282.555 102.399 282.422 102.669C282.38 102.747 282.337 102.843 282.184 103.057C282.102 103.166 282 103.308 281.755 103.528C281.504 103.727 281.099 104.123 280.094 104.245C279.062 104.409 277.798 103.636 277.463 103.063C277.06 102.486 277.014 102.146 276.957 101.916C276.877 101.469 276.904 101.334 276.904 101.209C276.934 100.801 276.948 100.847 276.948 100.817L276.959 100.766C276.972 100.698 276.988 100.63 277.007 100.564C278.267 93.5737 279.989 86.4027 280.717 82.9527C281.4 79.6887 282.223 76.2327 283.114 72.7447C284.042 69.1117 285.03 65.4837 285.963 62.0897C287.704 55.7607 289.255 50.2407 289.975 47.0597C290.837 43.2587 291.756 40.0707 293.108 35.3207C293.735 33.1137 294.457 30.5737 295.283 27.4847C295.689 25.9577 296.122 24.3087 296.535 22.5287C296.725 21.6977 296.899 20.8927 297.017 20.1857C297.074 19.8467 297.115 19.4957 297.118 19.3427C297.12 19.3087 297.117 19.2917 297.123 19.3387C297.128 19.3647 297.133 19.4047 297.152 19.4767C297.176 19.5657 297.209 19.6877 297.311 19.8787C297.446 20.1117 297.63 20.4097 298.132 20.6997C298.531 20.9217 298.992 21.0077 299.445 20.9457C300.018 20.8377 300.083 20.7167 300.153 20.6867C300.249 20.6137 300.161 20.6737 300.088 20.7497C300.012 20.8227 299.916 20.9267 299.817 21.0377C299.624 21.2567 299.414 21.5147 299.215 21.7657C298.813 22.2787 298.42 22.7987 298.036 23.3247C296.849 24.9367 295.7 26.5757 294.588 28.2407C291.535 32.8437 289.391 36.3987 286.536 41.9587C283.403 48.0927 280.19 54.6427 277.6 59.6917C276.419 61.9897 275.089 64.6977 273.751 67.4577C273.156 68.6857 272.592 69.8547 271.986 71.1107C270.776 73.6197 269.528 76.2057 268.355 78.5677C266.905 81.4897 265.638 83.8417 264.509 85.9427C264.154 86.6057 263.822 87.2237 263.5 87.8327C262.404 90.1777 261.314 92.5247 260.228 94.8737C260.073 95.2627 259.911 95.6737 259.741 96.1027C258.891 98.2547 257.851 100.892 256.454 104.123C254.248 109.225 252.146 113.625 249.933 118.272C248.21 121.891 246.421 125.66 244.474 130.022C243.146 132.995 241.668 136.41 240.213 139.779C238.048 144.793 235.912 149.755 234.329 153.149C233.729 154.436 233.155 155.493 232.586 156.542L232.578 156.556L232.46 156.773C229.748 162.947 227.059 169.096 224.365 175.26C223.392 177.486 222.433 179.681 221.465 181.882C221.157 182.622 220.855 183.346 220.542 184.09C219.817 185.825 219.077 187.553 218.322 189.274C217.964 190.08 217.619 190.856 217.216 191.646C217.106 191.862 216.989 192.074 216.864 192.281C216.792 192.399 216.743 192.485 216.596 192.686C216.478 192.849 216.347 193.002 216.204 193.143C216.086 193.257 215.94 193.388 215.708 193.537C215.38 193.75 215.012 193.893 214.626 193.959C214.279 194.084 212.912 193.937 212.31 193.332C211.661 192.773 211.486 192.21 211.397 191.943C211.355 191.809 211.323 191.673 211.299 191.535C211.226 191.086 211.249 190.804 211.247 190.69C211.254 190.391 211.284 190.115 211.299 189.95C211.661 186.797 213.346 180.548 215.115 173.664C215.582 171.859 216.051 170.052 216.524 168.222C217.191 165.628 217.857 163.022 218.406 160.808C218.959 158.588 219.617 156.537 220.295 154.422C220.93 152.443 221.581 150.409 222.169 148.17C222.469 147.028 222.757 145.825 223.073 144.511C223.353 143.345 223.638 142.153 223.962 140.876C224.263 139.687 225.025 137.091 225.999 133.764C226.604 131.701 227.289 129.359 227.997 126.904C229.72 120.36 231.444 113.818 233.172 107.279C233.463 105.897 233.684 104.682 233.806 103.715C233.892 103.022 233.936 102.415 233.98 101.796C234.041 100.952 234.101 100.085 234.282 98.9127C234.424 97.9897 234.67 96.9287 234.903 96.2387C235.012 95.9167 235.117 95.6777 235.213 95.4577C235.323 95.2047 235.422 94.9777 235.499 94.6907C235.555 94.4837 235.586 94.2617 235.625 93.9887C235.687 93.5527 235.769 92.9867 235.991 92.1597C236.832 89.0407 237.81 85.5397 238.774 82.0897C239.847 78.2517 240.897 74.4977 241.692 71.5077C242.387 68.8957 243.417 65.3617 244.502 61.6937C244.813 60.6427 245.091 59.7157 245.406 58.6527C246.392 55.3327 247.378 52.0257 248.186 49.1777C248.583 47.7717 248.958 46.3607 249.31 44.9437C249.479 44.2557 249.668 43.4727 249.743 43.0277C249.748 43.0037 249.749 42.9447 249.727 43.1257L249.719 43.2097L249.716 43.2667C249.712 43.3267 249.71 43.3857 249.71 43.4447C249.711 43.5957 249.707 43.7927 249.775 44.1797C249.874 44.5567 249.904 45.2087 250.841 46.2667C251.426 47.0247 253.269 47.7767 254.418 47.5167C255.593 47.3297 256.113 46.8907 256.448 46.6417C256.775 46.3737 256.926 46.1897 257.042 46.0527C257.075 46.0117 257.107 45.9707 257.138 45.9297L257.177 45.8767C257.274 45.7427 257.322 45.6617 257.357 45.6047C257.426 45.4877 257.431 45.4737 257.435 45.4687C257.439 45.4647 257.435 45.4737 257.428 45.4917C257.285 45.8457 257.146 46.2017 257.013 46.5597C255.827 49.7767 254.69 53.0227 253.573 55.6727C253.52 55.7987 253.46 55.9307 253.392 56.0707C253.175 56.5077 252.873 57.0377 252.521 57.6517C252.2 58.2037 251.818 58.8777 251.42 59.6137C250.097 63.0377 248.762 66.4587 247.417 69.8747L247.316 70.2597L247.314 70.2667C246.552 73.2067 245.507 77.2267 243.107 82.5067C242.496 83.8497 242.028 84.6607 241.604 85.3917C241.189 86.1107 240.818 86.7517 240.402 87.7407C239.929 88.8627 239.469 90.2277 238.965 91.7177C238.259 93.8087 237.469 96.1407 236.444 98.3887L236.22 98.8817C235.478 100.511 234.38 102.922 233.161 105.28C232.193 107.635 231.219 109.988 230.239 112.338C229.232 114.761 228.21 117.178 227.174 119.589C226.65 120.811 226.113 122.027 225.563 123.237C225.275 123.871 224.974 124.5 224.661 125.122C224.488 125.459 224.322 125.783 224.058 126.215C223.915 126.433 223.81 126.654 223.359 127.147C223.178 127.337 222.978 127.508 222.762 127.657C222.545 127.806 222.313 127.93 222.068 128.026C221.641 128.195 221.183 128.273 220.724 128.253C219.537 128.215 218.707 127.519 218.413 127.189C218.098 126.841 217.996 126.641 217.911 126.5C217.825 126.349 217.748 126.193 217.681 126.033C217.187 124.685 217.272 124.252 217.194 123.629C217.157 123.091 217.133 122.553 217.123 122.013C217.106 121.008 217.105 120.001 217.12 118.995C217.146 117.02 217.202 115.069 217.266 113.108C217.583 103.942 218.022 94.8107 218.482 85.6717C218.637 82.6307 218.856 79.6497 219.129 76.8847C219.425 73.8747 219.785 71.1327 220.2 68.8077C220.993 64.3407 221.961 61.8827 222.683 61.9507C223.419 62.0227 223.867 64.5647 224.177 69.0277C224.335 71.3567 224.436 74.1027 224.473 77.1147C224.508 79.8797 224.488 82.8617 224.411 85.8977C224.182 95.0177 223.972 104.165 223.873 113.248C223.862 114.433 223.855 115.622 223.854 116.8C223.863 117.326 223.873 117.876 223.884 118.397C223.908 119.52 223.948 120.595 224.02 121.62C224.055 122.132 224.1 122.623 224.159 123.042C224.188 123.246 224.223 123.435 224.251 123.523C224.261 123.604 224.359 123.597 224.06 122.991C223.97 122.871 223.949 122.651 223.237 122.021C222.899 121.736 222.206 121.322 221.39 121.211C220.718 121.112 220.031 121.196 219.404 121.455C218.615 121.805 218.429 122.056 218.255 122.205C218.125 122.332 218.052 122.421 218.018 122.46C217.883 122.626 217.958 122.51 217.995 122.414C218.097 122.19 218.238 121.856 218.372 121.524C218.652 120.834 218.923 120.11 219.198 119.366C219.485 118.587 219.78 117.773 220.062 116.984Z" fill="#C6C0AA"/>
</g>
</g>
<defs>
<clipPath id="clip0_322_2713">
<rect width="486" height="194" fill="white"/>
</clipPath>
<clipPath id="clip1_322_2713">
<rect width="486" height="194" fill="white"/>
</clipPath>
</defs>
</svg>
