<svg width="1416" height="277" viewBox="0 0 1416 277" fill="none" xmlns="http://www.w3.org/2000/svg">
<g clip-path="url(#clip0_322_2723)">
<path d="M1416 272.83H1352.91L1335.71 217.936H1239.03L1222.23 272.83H1158.74L1253.37 0H1321.78L1416 272.83ZM1286.96 64.3158L1254.19 170.007H1320.55L1286.96 64.3158Z" fill="#C6C0AA"/>
<path d="M1047.25 175.332H999.324V272.83H938.695V0H1064.87C1119.35 0 1155.81 31.5434 1155.81 79.473C1155.81 112.655 1136.97 137.644 1106.65 148.295C1134.1 155.259 1145.98 172.465 1150.08 208.514L1157.45 272.83H1098.46L1091.09 214.249C1088.22 187.622 1075.93 175.332 1047.25 175.332ZM1055.45 51.2068H999.324V124.535H1055.45C1080.85 124.535 1096 111.426 1096 88.0757C1096 64.7254 1080.85 51.2068 1055.45 51.2068Z" fill="#C6C0AA"/>
<path d="M699.43 0H759.649V166.32C759.649 199.502 779.312 218.755 813.314 218.755C844.447 218.755 862.882 199.502 862.882 166.32V0H922.691V166.32C922.691 232.274 878.858 276.107 813.314 276.107C744.901 276.107 699.43 232.274 699.43 166.32V0Z" fill="#C6C0AA"/>
<path d="M594.946 0C643.285 0 676.057 28.2662 676.057 69.2316C676.057 95.8591 661.719 118.8 638.779 129.451C669.503 140.921 688.757 167.958 688.757 201.14C688.757 243.744 657.623 272.83 611.742 272.83H461.398V0H594.946ZM587.572 51.2068H522.027V108.968H587.572C603.549 108.968 614.609 97.0881 614.609 79.0633C614.609 62.2675 603.549 51.2068 587.572 51.2068ZM594.126 160.175H522.027V222.033H596.175C614.609 222.033 627.308 209.743 627.308 191.718C627.308 172.465 614.2 160.175 594.126 160.175Z" fill="#C6C0AA"/>
<path d="M301.579 180.658L209.816 0H276.18L332.713 117.571L388.016 0H454.79L361.798 181.067V272.83H301.579V180.658Z" fill="#C6C0AA"/>
<path d="M210.972 0V56.942H135.596V272.83H75.7861V56.942H0V0H210.972Z" fill="#C6C0AA"/>
</g>
<defs>
<clipPath id="clip0_322_2723">
<rect width="1416" height="276.107" fill="white"/>
</clipPath>
</defs>
</svg>
